<svg width="18" height="14" viewBox="0 0 18 14" fill="none" xmlns="http://www.w3.org/2000/svg">
<path d="M1.95866 13.7916C1.58366 13.7916 1.2538 13.6493 0.969075 13.3646C0.684353 13.0798 0.541992 12.75 0.541992 12.375V1.62498C0.541992 1.23609 0.684353 0.902757 0.969075 0.62498C1.2538 0.347202 1.58366 0.208313 1.95866 0.208313H16.042C16.4309 0.208313 16.7642 0.347202 17.042 0.62498C17.3198 0.902757 17.4587 1.23609 17.4587 1.62498V12.375C17.4587 12.75 17.3198 13.0798 17.042 13.3646C16.7642 13.6493 16.4309 13.7916 16.042 13.7916H1.95866ZM9.00033 7.54165L1.95866 2.89581V12.375H16.042V2.89581L9.00033 7.54165ZM9.00033 6.16665L15.9587 1.62498H2.06283L9.00033 6.16665ZM1.95866 2.89581V1.62498V12.375V2.89581Z" fill="#244D35"/>
</svg>
