<svg xmlns="http://www.w3.org/2000/svg" width="15" height="15" fill="none"><path fill="#244D35" d="M11.25 7.5a3.75 3.75 0 0 0-2.083-3.358v1.841l2.041 2.042c.025-.167.042-.342.042-.525Zm2.083 0c0 .783-.166 1.517-.45 2.2l1.259 1.258A7.33 7.33 0 0 0 15 7.5 7.497 7.497 0 0 0 9.167.192v1.716A5.838 5.838 0 0 1 13.333 7.5ZM1.058 0 0 1.058 3.942 5H0v5h3.333L7.5 14.167V8.558l3.542 3.542a5.77 5.77 0 0 1-1.875.983V14.8a7.492 7.492 0 0 0 3.075-1.508l1.7 1.708L15 13.942l-7.5-7.5L1.058 0ZM7.5.833 5.758 2.575 7.5 4.317V.833Z"/></svg>