<svg width="14" height="19" viewBox="0 0 14 19" fill="none" xmlns="http://www.w3.org/2000/svg">
<path d="M1.3125 19C0.947917 19 0.638021 18.8681 0.382812 18.6042C0.127604 18.3403 0 18.0198 0 17.6429V7.82619C0 7.44921 0.127604 7.12877 0.382812 6.86488C0.638021 6.60099 0.947917 6.46905 1.3125 6.46905H2.84375V4.29762C2.84375 3.10635 3.24844 2.09226 4.05781 1.25536C4.86719 0.418452 5.84792 0 7 0C8.15208 0 9.13281 0.418452 9.94219 1.25536C10.7516 2.09226 11.1562 3.10635 11.1562 4.29762V6.46905H12.6875C13.0521 6.46905 13.362 6.60099 13.6172 6.86488C13.8724 7.12877 14 7.44921 14 7.82619V17.6429C14 18.0198 13.8724 18.3403 13.6172 18.6042C13.362 18.8681 13.0521 19 12.6875 19H1.3125ZM1.3125 17.6429H12.6875V7.82619H1.3125V17.6429ZM7 14.4762C7.46667 14.4762 7.86406 14.3103 8.19219 13.9786C8.52031 13.6468 8.68437 13.2472 8.68437 12.7798C8.68437 12.3274 8.52031 11.9165 8.19219 11.547C7.86406 11.1776 7.46667 10.9929 7 10.9929C6.53333 10.9929 6.13594 11.1776 5.80781 11.547C5.47969 11.9165 5.31562 12.3274 5.31562 12.7798C5.31562 13.2472 5.47969 13.6468 5.80781 13.9786C6.13594 14.3103 6.53333 14.4762 7 14.4762ZM4.15625 6.46905H9.84375V4.29762C9.84375 3.48333 9.56667 2.78968 9.0125 2.21667C8.45833 1.64365 7.7875 1.35714 7 1.35714C6.2125 1.35714 5.54167 1.64365 4.9875 2.21667C4.43333 2.78968 4.15625 3.48333 4.15625 4.29762V6.46905Z" fill="#244D35"/>
</svg>
