<svg width="16" height="16" viewBox="0 0 16 16" fill="none" xmlns="http://www.w3.org/2000/svg">
<path d="M14.5625 15.625C12.8542 15.625 11.1562 15.2049 9.46875 14.3646C7.78125 13.5243 6.26389 12.4306 4.91667 11.0833C3.56944 9.73611 2.47569 8.21528 1.63542 6.52083C0.795139 4.82639 0.375 3.13194 0.375 1.4375C0.375 1.13194 0.475695 0.878472 0.677083 0.677083C0.878472 0.475695 1.13194 0.375 1.4375 0.375H4.35417C4.59028 0.375 4.79861 0.451389 4.97917 0.604167C5.15972 0.756945 5.27778 0.965278 5.33333 1.22917L5.89583 3.79167C5.9375 4.02778 5.93403 4.23958 5.88542 4.42708C5.83681 4.61458 5.74306 4.77083 5.60417 4.89583L3.5 6.97917C4.26389 8.21528 5.10764 9.29514 6.03125 10.2188C6.95486 11.1424 8 11.9236 9.16667 12.5625L11.1875 10.5C11.3542 10.3194 11.5382 10.1944 11.7396 10.125C11.941 10.0556 12.1528 10.0486 12.375 10.1042L14.75 10.6458C15.0139 10.7014 15.2257 10.8264 15.3854 11.0208C15.5451 11.2153 15.625 11.4444 15.625 11.7083V14.5625C15.625 14.8542 15.5243 15.1042 15.3229 15.3125C15.1215 15.5208 14.8681 15.625 14.5625 15.625ZM2.79167 5.6875L4.47917 4.02083L4 1.79167H1.8125C1.79861 2.31944 1.87153 2.89583 2.03125 3.52083C2.19097 4.14583 2.44444 4.86806 2.79167 5.6875ZM10.5 13.25C11.0417 13.5139 11.6389 13.7292 12.2917 13.8958C12.9444 14.0625 13.5833 14.1597 14.2083 14.1875V11.9792L12.125 11.5417L10.5 13.25Z" fill="#244D35"/>
</svg>
