<svg width="13" height="19" viewBox="0 0 13 19" fill="none" xmlns="http://www.w3.org/2000/svg">
<path d="M6.49961 13.2625C7.98711 12.0667 9.11003 10.9109 9.86836 9.79533C10.6267 8.6797 11.0059 7.64793 11.0059 6.70001C11.0059 5.85418 10.8527 5.1396 10.5465 4.55626C10.2402 3.97293 9.86107 3.49533 9.40898 3.12345C8.9569 2.75157 8.46836 2.48178 7.94336 2.31407C7.41836 2.14637 6.93711 2.06251 6.49961 2.06251C6.06211 2.06251 5.58086 2.14637 5.05586 2.31407C4.53086 2.48178 4.04232 2.75157 3.59023 3.12345C3.13815 3.49533 2.75898 3.97293 2.45273 4.55626C2.14648 5.1396 1.99336 5.85418 1.99336 6.70001C1.99336 7.64793 2.37253 8.6797 3.13086 9.79533C3.88919 10.9109 5.01211 12.0667 6.49961 13.2625ZM6.49961 15.1656C4.47253 13.6344 2.9668 12.1761 1.98242 10.7906C0.998047 9.40522 0.505859 8.04168 0.505859 6.70001C0.505859 5.69376 0.688151 4.80783 1.05273 4.0422C1.41732 3.27657 1.88763 2.63491 2.46367 2.1172C3.03971 1.59949 3.68138 1.21303 4.38867 0.957825C5.09596 0.702616 5.79961 0.575012 6.49961 0.575012C7.19961 0.575012 7.90326 0.702616 8.61055 0.957825C9.31784 1.21303 9.9595 1.59949 10.5355 2.1172C11.1116 2.63491 11.5819 3.27657 11.9465 4.0422C12.3111 4.80783 12.4934 5.69376 12.4934 6.70001C12.4934 8.04168 12.0012 9.40522 11.0168 10.7906C10.0324 12.1761 8.52669 13.6344 6.49961 15.1656ZM6.49961 8.18751C6.95169 8.18751 7.33451 8.0271 7.64805 7.70626C7.96159 7.38543 8.11836 7.00626 8.11836 6.56876C8.11836 6.11668 7.96159 5.73387 7.64805 5.42033C7.33451 5.10678 6.95169 4.95001 6.49961 4.95001C6.06211 4.95001 5.68294 5.10678 5.36211 5.42033C5.04128 5.73387 4.88086 6.11668 4.88086 6.56876C4.88086 7.00626 5.04128 7.38543 5.36211 7.70626C5.68294 8.0271 6.06211 8.18751 6.49961 8.18751ZM0.505859 18.425V16.9375H12.4934V18.425H0.505859Z" fill="#244D35"/>
</svg>
