<svg xmlns="http://www.w3.org/2000/svg" width="68" height="67" fill="none"><g clip-path="url(#a)"><path fill="#FBD566" d="M36.51 16.484c-2.986 0-6.375.528-9.136 2.144-2.764 1.62-4.848 4.477-4.848 8.596 0 2.2-.186 2.858-.56 3.58-.373.725-1.102 1.654-1.978 3.754a1.085 1.085 0 0 0 1 1.498h2.211l-.004.852V40.452c0 1.02-.139 2.038.566 3.006.354.481.91.822 1.526 1.004.618.182 1.326.245 2.222.245H30v5.412a1.085 1.085 0 0 0 1.085 1.085h12.022a1.085 1.085 0 0 0 1.085-1.085v-7.59c0-3.596.933-5.282 1.981-7.107 1.005-1.747 2.105-3.739 2.205-6.892.044-.12.067-.249.067-.378 0-6.948-5.692-11.663-11.935-11.663v-.005Zm0 2.162v.008c5.175 0 9.765 3.715 9.765 9.494 0 2.94-.907 4.318-1.983 6.189-1.077 1.87-2.272 4.188-2.272 8.187v6.506h-9.85v-5.412a1.085 1.085 0 0 0-1.085-1.085h-3.576c-.777 0-1.309-.067-1.61-.156-.304-.09-.348-.154-.382-.204-.074-.1-.152-.669-.152-1.725v-3.535c.009-.88.013-1.363.006-1.662 0-.15 0-.24-.028-.415-.017-.089-.017-.21-.165-.445a1.434 1.434 0 0 0-.933-.512h-1.458c.375-.67.807-1.504 1.111-2.09.52-1.01.8-2.224.8-4.574 0-3.429 1.513-5.399 3.772-6.72 2.26-1.324 5.319-1.85 8.04-1.85Zm-.33 2.174v.004c-1.935-.021-4.34.243-6.314 1.183-.988.469-1.888 1.128-2.472 2.081-.582.955-.78 2.183-.475 3.494.314 1.345 1.278 2.291 2.315 2.528 1.037.239 2.01.028 2.951-.113.938-.141 1.836-.245 2.572-.115.735.13 1.321.417 1.931 1.304.651.948 1.41 1.612 2.268 1.947a3.256 3.256 0 0 0 2.59-.094c1.559-.76 2.453-2.552 2.611-4.739.163-2.268-.84-4.216-2.365-5.497-1.528-1.28-3.55-1.968-5.612-1.983Zm-.017 2.174c1.584.022 3.15.565 4.234 1.476 1.084.91 1.707 2.105 1.594 3.678-.119 1.656-.846 2.674-1.4 2.945a.942.942 0 0 1-.846.021c-.34-.13-.794-.468-1.267-1.156-.907-1.317-2.148-1.996-3.342-2.21-1.193-.212-2.317-.036-3.276.11-.955.14-1.758.227-2.144.138-.384-.087-.49-.087-.682-.907-.2-.861-.078-1.395.213-1.87.289-.473.818-.912 1.55-1.259 1.464-.694 3.658-.979 5.366-.966Z"/></g><circle cx="34.004" cy="33.84" r="31.827" stroke="#FBD566" stroke-width="2.48"/><defs><clipPath id="a"><path fill="#fff" d="M16.645 16.48h34.72V51.2h-34.72z"/></clipPath></defs></svg>