<svg xmlns="http://www.w3.org/2000/svg" width="68" height="67" fill="none"><path fill="#FBD566" d="m43.938 14.893.78 2.105 2.104.78-2.105.778-.779 2.105-.779-2.105-2.104-.779 2.105-.779.778-2.105ZM47.903 14.893l.39 1.053 1.052.39-1.053.389-.39 1.052-.389-1.052-1.052-.39 1.052-.39.39-1.052ZM46.642 20.66l.341.922.921.34-.92.341-.342.921-.34-.92-.921-.341.92-.341.341-.921Z"/><rect width="29.14" height="6.791" x="19.637" y="26.998" stroke="#FBD566" stroke-width="1.86" rx="1.55"/><rect width="23.373" height="16.524" x="22.522" y="34.207" stroke="#FBD566" stroke-width="1.86" rx="1.55"/><mask id="a" fill="#fff"><rect width="6.488" height="25.593" x="30.963" y="26.068" rx="1.24"/></mask><rect width="6.488" height="25.593" x="30.963" y="26.068" stroke="#FBD566" stroke-width="3.72" mask="url(#a)" rx="1.24"/><path stroke="#FBD566" stroke-width="1.86" d="M27.205 22.9a2.752 2.752 0 0 1 2.752-2.751h.284a3.035 3.035 0 0 1 3.035 3.035v3.035h-2.752a3.318 3.318 0 0 1-3.319-3.318ZM40.488 22.9a2.752 2.752 0 0 0-2.752-2.751h-.283a3.035 3.035 0 0 0-3.035 3.035v3.035h2.752a3.318 3.318 0 0 0 3.318-3.318Z"/><circle cx="34" cy="33.08" r="31.827" stroke="#FBD566" stroke-width="2.48"/></svg>