<svg xmlns="http://www.w3.org/2000/svg" width="160" height="160" fill="none"><path fill="#FBD566" d="M45.281 113.312c-1.75 0-3.245-.619-4.484-1.859-1.24-1.239-1.86-2.734-1.86-4.484V54.031c0-1.75.62-3.245 1.86-4.484 1.24-1.24 2.734-1.86 4.484-1.86h70.438c1.75 0 3.245.62 4.484 1.86 1.24 1.24 1.859 2.734 1.859 4.484v52.938c0 1.75-.619 3.245-1.859 4.484-1.239 1.24-2.734 1.859-4.484 1.859H45.281Zm0-4.921h32.703V52.609H45.281c-.364 0-.692.146-.984.438-.292.292-.438.62-.438.984v52.938c0 .364.146.692.438.984.292.292.62.438.984.438Zm37.735 0h32.703c.364 0 .692-.146.984-.438.292-.292.438-.62.438-.984V54.031c0-.364-.146-.692-.438-.984-.292-.292-.62-.438-.984-.438H83.016v55.782Zm4.812-15.313h24.5v-4.375h-24.5v4.375Zm0-11.594h24.5V77h-24.5v4.484Zm0-11.703h24.5v-4.375h-24.5v4.375Zm-43.969 38.61V52.609v55.782Z"/><circle cx="80" cy="80" r="77" stroke="#FBD566" stroke-width="6"/></svg>